G04 #@! TF.FileFunction,Soldermask,Top*
%FSLAX46Y46*%
G04 Gerber Fmt 4.6, Leading zero omitted, Abs format (unit mm)*
G04 Created by KiCad (PCBNEW 4.0.1-stable) date 1/13/2016 10:16:52 PM*
%MOMM*%
G01*
G04 APERTURE LIST*
%ADD10C,0.100000*%
%ADD11C,0.150000*%
%ADD12R,1.924000X2.686000*%
%ADD13O,1.924000X2.686000*%
%ADD14R,2.686000X1.924000*%
%ADD15O,2.686000X1.924000*%
%ADD16O,1.924000X2.432000*%
%ADD17R,1.300000X1.600000*%
%ADD18R,1.250000X1.400000*%
%ADD19R,2.590000X2.000000*%
G04 APERTURE END LIST*
D10*
D11*
X188341000Y-119253000D02*
X188341000Y-119507000D01*
X190119000Y-119253000D02*
X190119000Y-119507000D01*
X188341000Y-119380000D02*
X190119000Y-119380000D01*
X188912500Y-120269000D02*
X189611000Y-120269000D01*
X189928500Y-120015000D02*
X188531500Y-120015000D01*
X188468000Y-119888000D02*
X189992000Y-119888000D01*
X190055500Y-119761000D02*
X188404500Y-119761000D01*
X188404500Y-119634000D02*
X190055500Y-119634000D01*
X190119000Y-119507000D02*
X188341000Y-119507000D01*
X188341000Y-119507000D02*
G75*
G03X189230000Y-120396000I889000J0D01*
G01*
X189230000Y-120396000D02*
G75*
G03X190119000Y-119507000I0J889000D01*
G01*
X189611000Y-118491000D02*
X188849000Y-118491000D01*
X188531500Y-118745000D02*
X189928500Y-118745000D01*
X189992000Y-118872000D02*
X188468000Y-118872000D01*
X188404500Y-118999000D02*
X190055500Y-118999000D01*
X190055500Y-119126000D02*
X188404500Y-119126000D01*
X190119000Y-119253000D02*
X188341000Y-119253000D01*
X189230000Y-118364000D02*
G75*
G03X188341000Y-119253000I0J-889000D01*
G01*
X190119000Y-119253000D02*
G75*
G03X189230000Y-118364000I-889000J0D01*
G01*
X190119000Y-68707000D02*
X190119000Y-68453000D01*
X188341000Y-68707000D02*
X188341000Y-68453000D01*
X190119000Y-68580000D02*
X188341000Y-68580000D01*
X189547500Y-67691000D02*
X188849000Y-67691000D01*
X188531500Y-67945000D02*
X189928500Y-67945000D01*
X189992000Y-68072000D02*
X188468000Y-68072000D01*
X188404500Y-68199000D02*
X190055500Y-68199000D01*
X190055500Y-68326000D02*
X188404500Y-68326000D01*
X188341000Y-68453000D02*
X190119000Y-68453000D01*
X190119000Y-68453000D02*
G75*
G03X189230000Y-67564000I-889000J0D01*
G01*
X189230000Y-67564000D02*
G75*
G03X188341000Y-68453000I0J-889000D01*
G01*
X188849000Y-69469000D02*
X189611000Y-69469000D01*
X189928500Y-69215000D02*
X188531500Y-69215000D01*
X188468000Y-69088000D02*
X189992000Y-69088000D01*
X190055500Y-68961000D02*
X188404500Y-68961000D01*
X188404500Y-68834000D02*
X190055500Y-68834000D01*
X188341000Y-68707000D02*
X190119000Y-68707000D01*
X189230000Y-69596000D02*
G75*
G03X190119000Y-68707000I0J889000D01*
G01*
X188341000Y-68707000D02*
G75*
G03X189230000Y-69596000I889000J0D01*
G01*
D12*
X181610000Y-67056000D03*
D13*
X179070000Y-67056000D03*
X176530000Y-67056000D03*
X173990000Y-67056000D03*
X171450000Y-67056000D03*
X168910000Y-67056000D03*
X166370000Y-67056000D03*
X163830000Y-67056000D03*
X161290000Y-67056000D03*
X158750000Y-67056000D03*
X156210000Y-67056000D03*
X153670000Y-67056000D03*
X151130000Y-67056000D03*
X148590000Y-67056000D03*
X146050000Y-67056000D03*
X143510000Y-67056000D03*
X140970000Y-67056000D03*
X138430000Y-67056000D03*
X135890000Y-67056000D03*
X133350000Y-67056000D03*
X130810000Y-67056000D03*
X128270000Y-67056000D03*
X125730000Y-67056000D03*
X123190000Y-67056000D03*
X181610000Y-70104000D03*
X179070000Y-70104000D03*
X176530000Y-70104000D03*
X173990000Y-70104000D03*
X171450000Y-70104000D03*
X168910000Y-70104000D03*
X166370000Y-70104000D03*
X163830000Y-70104000D03*
X161290000Y-70104000D03*
X158750000Y-70104000D03*
X156210000Y-70104000D03*
X153670000Y-70104000D03*
X151130000Y-70104000D03*
X148590000Y-70104000D03*
X146050000Y-70104000D03*
X143510000Y-70104000D03*
X140970000Y-70104000D03*
X138430000Y-70104000D03*
X135890000Y-70104000D03*
X133350000Y-70104000D03*
X130810000Y-70104000D03*
X128270000Y-70104000D03*
X125730000Y-70104000D03*
X123190000Y-70104000D03*
X120650000Y-67056000D03*
X120650000Y-70104000D03*
D12*
X181610000Y-120396000D03*
D13*
X179070000Y-120396000D03*
X176530000Y-120396000D03*
X173990000Y-120396000D03*
X171450000Y-120396000D03*
X168910000Y-120396000D03*
X166370000Y-120396000D03*
X163830000Y-120396000D03*
X161290000Y-120396000D03*
X158750000Y-120396000D03*
X156210000Y-120396000D03*
X153670000Y-120396000D03*
X151130000Y-120396000D03*
X148590000Y-120396000D03*
X146050000Y-120396000D03*
X143510000Y-120396000D03*
X140970000Y-120396000D03*
X138430000Y-120396000D03*
X135890000Y-120396000D03*
X133350000Y-120396000D03*
X130810000Y-120396000D03*
X128270000Y-120396000D03*
X125730000Y-120396000D03*
X123190000Y-120396000D03*
X181610000Y-123444000D03*
X179070000Y-123444000D03*
X176530000Y-123444000D03*
X173990000Y-123444000D03*
X171450000Y-123444000D03*
X168910000Y-123444000D03*
X166370000Y-123444000D03*
X163830000Y-123444000D03*
X161290000Y-123444000D03*
X158750000Y-123444000D03*
X156210000Y-123444000D03*
X153670000Y-123444000D03*
X151130000Y-123444000D03*
X148590000Y-123444000D03*
X146050000Y-123444000D03*
X143510000Y-123444000D03*
X140970000Y-123444000D03*
X138430000Y-123444000D03*
X135890000Y-123444000D03*
X133350000Y-123444000D03*
X130810000Y-123444000D03*
X128270000Y-123444000D03*
X125730000Y-123444000D03*
X123190000Y-123444000D03*
X120650000Y-120396000D03*
X120650000Y-123444000D03*
D14*
X96520000Y-107950000D03*
D15*
X96520000Y-110490000D03*
X96520000Y-113030000D03*
X96520000Y-115570000D03*
X96520000Y-118110000D03*
X96520000Y-120650000D03*
D16*
X107950000Y-91490800D03*
X107950000Y-96342200D03*
X110490000Y-91490800D03*
X110490000Y-96342200D03*
X113030000Y-91490800D03*
X113030000Y-96342200D03*
X115570000Y-91490800D03*
X115570000Y-96342200D03*
X118110000Y-91490800D03*
X118110000Y-96342200D03*
X120650000Y-91490800D03*
X120650000Y-96342200D03*
X123190000Y-91490800D03*
X123190000Y-96342200D03*
X125730000Y-91490800D03*
X125730000Y-96342200D03*
X128270000Y-91490800D03*
X128270000Y-96342200D03*
X130810000Y-91490800D03*
X130810000Y-96342200D03*
X133350000Y-91490800D03*
X133350000Y-96342200D03*
X135890000Y-91490800D03*
X135890000Y-96342200D03*
X138430000Y-91490800D03*
X138430000Y-96342200D03*
X140970000Y-91490800D03*
X140970000Y-96342200D03*
X143510000Y-91490800D03*
X143510000Y-96342200D03*
X146050000Y-91490800D03*
X146050000Y-96342200D03*
X148590000Y-91490800D03*
X148590000Y-96342200D03*
X151130000Y-91490800D03*
X151130000Y-96342200D03*
X153670000Y-91440000D03*
X153670000Y-96342200D03*
X156210000Y-91440000D03*
X156210000Y-96342200D03*
X158750000Y-91440000D03*
X158750000Y-96342200D03*
X161290000Y-91440000D03*
X161290000Y-96342200D03*
X163830000Y-91440000D03*
X163830000Y-96342200D03*
X166370000Y-91440000D03*
X166370000Y-96342200D03*
X168910000Y-91440000D03*
X168910000Y-96342200D03*
X171450000Y-91440000D03*
X171450000Y-96342200D03*
X173990000Y-91440000D03*
X173990000Y-96342200D03*
X176530000Y-91440000D03*
X176530000Y-96342200D03*
X179070000Y-91440000D03*
X179070000Y-96342200D03*
X181610000Y-91440000D03*
X181610000Y-96342200D03*
X184150000Y-91440000D03*
X184150000Y-96342200D03*
X186690000Y-91440000D03*
X186690000Y-96342200D03*
X189230000Y-91440000D03*
X189230000Y-96342200D03*
X191770000Y-91440000D03*
X191770000Y-96342200D03*
X194310000Y-91440000D03*
X194310000Y-96342200D03*
X196850000Y-91440000D03*
X196850000Y-96342200D03*
D17*
X196850000Y-83990000D03*
X196850000Y-86190000D03*
X191770000Y-83990000D03*
X191770000Y-86190000D03*
X184150000Y-83990000D03*
X184150000Y-86190000D03*
X176530000Y-83990000D03*
X176530000Y-86190000D03*
X166370000Y-83990000D03*
X166370000Y-86190000D03*
X161290000Y-83990000D03*
X161290000Y-86190000D03*
X156210000Y-83990000D03*
X156210000Y-86190000D03*
X151130000Y-83990000D03*
X151130000Y-86190000D03*
X146050000Y-83990000D03*
X146050000Y-86190000D03*
X140970000Y-83990000D03*
X140970000Y-86190000D03*
X133350000Y-83990000D03*
X133350000Y-86190000D03*
D18*
X102985000Y-66040000D03*
X101485000Y-66040000D03*
X102985000Y-76200000D03*
X101485000Y-76200000D03*
D17*
X194310000Y-86190000D03*
X194310000Y-83990000D03*
X186690000Y-86190000D03*
X186690000Y-83990000D03*
X179070000Y-86190000D03*
X179070000Y-83990000D03*
X171450000Y-86190000D03*
X171450000Y-83990000D03*
X163830000Y-86190000D03*
X163830000Y-83990000D03*
X158750000Y-86190000D03*
X158750000Y-83990000D03*
X153670000Y-86190000D03*
X153670000Y-83990000D03*
X148590000Y-86190000D03*
X148590000Y-83990000D03*
X143510000Y-86190000D03*
X143510000Y-83990000D03*
X138430000Y-86190000D03*
X138430000Y-83990000D03*
X107950000Y-86190000D03*
X107950000Y-83990000D03*
X130810000Y-86190000D03*
X130810000Y-83990000D03*
X128270000Y-86190000D03*
X128270000Y-83990000D03*
X125730000Y-86190000D03*
X125730000Y-83990000D03*
X123190000Y-86190000D03*
X123190000Y-83990000D03*
X120650000Y-86190000D03*
X120650000Y-83990000D03*
X118110000Y-86190000D03*
X118110000Y-83990000D03*
X115570000Y-86190000D03*
X115570000Y-83990000D03*
X113030000Y-86190000D03*
X113030000Y-83990000D03*
D18*
X102985000Y-86360000D03*
X101485000Y-86360000D03*
D17*
X194310000Y-103970000D03*
X194310000Y-101770000D03*
X189230000Y-103970000D03*
X189230000Y-101770000D03*
X184150000Y-103970000D03*
X184150000Y-101770000D03*
X176530000Y-103970000D03*
X176530000Y-101770000D03*
X166370000Y-103970000D03*
X166370000Y-101770000D03*
X161290000Y-103970000D03*
X161290000Y-101770000D03*
X156210000Y-103970000D03*
X156210000Y-101770000D03*
X151130000Y-103970000D03*
X151130000Y-101770000D03*
X146050000Y-103970000D03*
X146050000Y-101770000D03*
X140970000Y-103970000D03*
X140970000Y-101770000D03*
X133350000Y-103970000D03*
X133350000Y-101770000D03*
X130810000Y-103970000D03*
X130810000Y-101770000D03*
X128270000Y-103970000D03*
X128270000Y-101770000D03*
X125730000Y-103970000D03*
X125730000Y-101770000D03*
X123190000Y-103970000D03*
X123190000Y-101770000D03*
X120650000Y-103970000D03*
X120650000Y-101770000D03*
X118110000Y-103970000D03*
X118110000Y-101770000D03*
X115570000Y-103970000D03*
X115570000Y-101770000D03*
X113030000Y-103970000D03*
X113030000Y-101770000D03*
X110490000Y-103970000D03*
X110490000Y-101770000D03*
X196850000Y-101770000D03*
X196850000Y-103970000D03*
X191770000Y-101770000D03*
X191770000Y-103970000D03*
X186690000Y-101770000D03*
X186690000Y-103970000D03*
X179070000Y-101770000D03*
X179070000Y-103970000D03*
X171450000Y-101770000D03*
X171450000Y-103970000D03*
X163830000Y-101770000D03*
X163830000Y-103970000D03*
X158750000Y-101770000D03*
X158750000Y-103970000D03*
X153670000Y-101770000D03*
X153670000Y-103970000D03*
X148590000Y-101770000D03*
X148590000Y-103970000D03*
X143510000Y-101770000D03*
X143510000Y-103970000D03*
X138430000Y-103970000D03*
X138430000Y-101770000D03*
D19*
X101115000Y-71120000D03*
X91925000Y-71120000D03*
X101115000Y-81280000D03*
X91925000Y-81280000D03*
X101115000Y-91440000D03*
X91925000Y-91440000D03*
D10*
G36*
X189880000Y-119280000D02*
X188580000Y-119280000D01*
X188680000Y-118480000D01*
X189780000Y-118480000D01*
X189880000Y-119280000D01*
X189880000Y-119280000D01*
G37*
G36*
X188580000Y-119480000D02*
X189880000Y-119480000D01*
X189780000Y-120280000D01*
X188680000Y-120280000D01*
X188580000Y-119480000D01*
X188580000Y-119480000D01*
G37*
G36*
X188580000Y-68680000D02*
X189880000Y-68680000D01*
X189780000Y-69480000D01*
X188680000Y-69480000D01*
X188580000Y-68680000D01*
X188580000Y-68680000D01*
G37*
G36*
X189880000Y-68480000D02*
X188580000Y-68480000D01*
X188680000Y-67680000D01*
X189780000Y-67680000D01*
X189880000Y-68480000D01*
X189880000Y-68480000D01*
G37*
M02*
