M48
;DRILL file {KiCad 4.0.1-stable} date 1/13/2016 10:16:54 PM
;FORMAT={-:-/ absolute / inch / decimal}
FMAT,2
INCH,TZ
T1C0.016
T2C0.039
T3C0.040
%
G90
G05
M72
T1
X3.95Y-2.7
X3.95Y-3.1
X3.95Y-3.5
X7.45Y-2.8
T2
X3.8Y-4.25
X3.8Y-4.35
X3.8Y-4.45
X3.8Y-4.55
X3.8Y-4.65
X3.8Y-4.75
X4.75Y-2.65
X4.75Y-2.75
X4.75Y-4.75
X4.75Y-4.85
X4.85Y-2.65
X4.85Y-2.75
X4.85Y-4.75
X4.85Y-4.85
X4.95Y-2.65
X4.95Y-2.75
X4.95Y-4.75
X4.95Y-4.85
X5.05Y-2.65
X5.05Y-2.75
X5.05Y-4.75
X5.05Y-4.85
X5.15Y-2.65
X5.15Y-2.75
X5.15Y-4.75
X5.15Y-4.85
X5.25Y-2.65
X5.25Y-2.75
X5.25Y-4.75
X5.25Y-4.85
X5.35Y-2.65
X5.35Y-2.75
X5.35Y-4.75
X5.35Y-4.85
X5.45Y-2.65
X5.45Y-2.75
X5.45Y-4.75
X5.45Y-4.85
X5.55Y-2.65
X5.55Y-2.75
X5.55Y-4.75
X5.55Y-4.85
X5.65Y-2.65
X5.65Y-2.75
X5.65Y-4.75
X5.65Y-4.85
X5.75Y-2.65
X5.75Y-2.75
X5.75Y-4.75
X5.75Y-4.85
X5.85Y-2.65
X5.85Y-2.75
X5.85Y-4.75
X5.85Y-4.85
X5.95Y-2.65
X5.95Y-2.75
X5.95Y-4.75
X5.95Y-4.85
X6.05Y-2.65
X6.05Y-2.75
X6.05Y-4.75
X6.05Y-4.85
X6.15Y-2.65
X6.15Y-2.75
X6.15Y-4.75
X6.15Y-4.85
X6.25Y-2.65
X6.25Y-2.75
X6.25Y-4.75
X6.25Y-4.85
X6.35Y-2.65
X6.35Y-2.75
X6.35Y-4.75
X6.35Y-4.85
X6.45Y-2.65
X6.45Y-2.75
X6.45Y-4.75
X6.45Y-4.85
X6.55Y-2.65
X6.55Y-2.75
X6.55Y-4.75
X6.55Y-4.85
X6.65Y-2.65
X6.65Y-2.75
X6.65Y-4.75
X6.65Y-4.85
X6.75Y-2.65
X6.75Y-2.75
X6.75Y-4.75
X6.75Y-4.85
X6.85Y-2.65
X6.85Y-2.75
X6.85Y-4.75
X6.85Y-4.85
X6.95Y-2.65
X6.95Y-2.75
X6.95Y-4.75
X6.95Y-4.85
X7.05Y-2.65
X7.05Y-2.75
X7.05Y-4.75
X7.05Y-4.85
X7.15Y-2.65
X7.15Y-2.75
X7.15Y-4.75
X7.15Y-4.85
T3
X4.25Y-3.602
X4.25Y-3.793
X4.35Y-3.602
X4.35Y-3.793
X4.45Y-3.602
X4.45Y-3.793
X4.55Y-3.602
X4.55Y-3.793
X4.65Y-3.602
X4.65Y-3.793
X4.75Y-3.602
X4.75Y-3.793
X4.85Y-3.602
X4.85Y-3.793
X4.95Y-3.602
X4.95Y-3.793
X5.05Y-3.602
X5.05Y-3.793
X5.15Y-3.602
X5.15Y-3.793
X5.25Y-3.602
X5.25Y-3.793
X5.35Y-3.602
X5.35Y-3.793
X5.45Y-3.602
X5.45Y-3.793
X5.55Y-3.602
X5.55Y-3.793
X5.65Y-3.602
X5.65Y-3.793
X5.75Y-3.602
X5.75Y-3.793
X5.85Y-3.602
X5.85Y-3.793
X5.95Y-3.602
X5.95Y-3.793
X6.05Y-3.6
X6.05Y-3.793
X6.15Y-3.6
X6.15Y-3.793
X6.25Y-3.6
X6.25Y-3.793
X6.35Y-3.6
X6.35Y-3.793
X6.45Y-3.6
X6.45Y-3.793
X6.55Y-3.6
X6.55Y-3.793
X6.65Y-3.6
X6.65Y-3.793
X6.75Y-3.6
X6.75Y-3.793
X6.85Y-3.6
X6.85Y-3.793
X6.95Y-3.6
X6.95Y-3.793
X7.05Y-3.6
X7.05Y-3.793
X7.15Y-3.6
X7.15Y-3.793
X7.25Y-3.6
X7.25Y-3.793
X7.35Y-3.6
X7.35Y-3.793
X7.45Y-3.6
X7.45Y-3.793
X7.55Y-3.6
X7.55Y-3.793
X7.65Y-3.6
X7.65Y-3.793
X7.75Y-3.6
X7.75Y-3.793
T0
M30
