G04 #@! TF.FileFunction,Legend,Bot*
%FSLAX46Y46*%
G04 Gerber Fmt 4.6, Leading zero omitted, Abs format (unit mm)*
G04 Created by KiCad (PCBNEW 4.0.1-stable) date 1/13/2016 10:20:37 PM*
%MOMM*%
G01*
G04 APERTURE LIST*
%ADD10C,0.100000*%
%ADD11C,0.508000*%
%ADD12C,0.150000*%
G04 APERTURE END LIST*
D10*
D11*
X151130000Y-99009200D02*
X199390000Y-99009200D01*
X151130000Y-88849200D02*
X199390000Y-88849200D01*
X105410000Y-93929200D02*
X109220000Y-93929200D01*
X109220000Y-93929200D02*
X109220000Y-88849200D01*
X105410000Y-99009200D02*
X153670000Y-99009200D01*
X199390000Y-99009200D02*
X199390000Y-88849200D01*
X153670000Y-88849200D02*
X105410000Y-88849200D01*
X105410000Y-88849200D02*
X105410000Y-99009200D01*
D12*
X101100000Y-111165000D02*
X102100000Y-111165000D01*
X102100000Y-109815000D02*
X101100000Y-109815000D01*
X101100000Y-116245000D02*
X102100000Y-116245000D01*
X102100000Y-114895000D02*
X101100000Y-114895000D01*
X101100000Y-118785000D02*
X102100000Y-118785000D01*
X102100000Y-117435000D02*
X101100000Y-117435000D01*
X101100000Y-121325000D02*
X102100000Y-121325000D01*
X102100000Y-119975000D02*
X101100000Y-119975000D01*
X107418095Y-86812381D02*
X107418095Y-85812381D01*
X107037142Y-85812381D01*
X106941904Y-85860000D01*
X106894285Y-85907619D01*
X106846666Y-86002857D01*
X106846666Y-86145714D01*
X106894285Y-86240952D01*
X106941904Y-86288571D01*
X107037142Y-86336190D01*
X107418095Y-86336190D01*
X106465714Y-85907619D02*
X106418095Y-85860000D01*
X106322857Y-85812381D01*
X106084761Y-85812381D01*
X105989523Y-85860000D01*
X105941904Y-85907619D01*
X105894285Y-86002857D01*
X105894285Y-86098095D01*
X105941904Y-86240952D01*
X106513333Y-86812381D01*
X105894285Y-86812381D01*
X159098096Y-85812381D02*
X158526667Y-85812381D01*
X158812382Y-86812381D02*
X158812382Y-85812381D01*
X157812381Y-86764762D02*
X157907619Y-86812381D01*
X158098096Y-86812381D01*
X158193334Y-86764762D01*
X158240953Y-86669524D01*
X158240953Y-86288571D01*
X158193334Y-86193333D01*
X158098096Y-86145714D01*
X157907619Y-86145714D01*
X157812381Y-86193333D01*
X157764762Y-86288571D01*
X157764762Y-86383810D01*
X158240953Y-86479048D01*
X157336191Y-86812381D02*
X157336191Y-85812381D01*
X157240953Y-86431429D02*
X156955238Y-86812381D01*
X156955238Y-86145714D02*
X157336191Y-86526667D01*
X156621905Y-85812381D02*
X155955238Y-85812381D01*
X156383810Y-86812381D01*
X155431429Y-86240952D02*
X155526667Y-86193333D01*
X155574286Y-86145714D01*
X155621905Y-86050476D01*
X155621905Y-86002857D01*
X155574286Y-85907619D01*
X155526667Y-85860000D01*
X155431429Y-85812381D01*
X155240952Y-85812381D01*
X155145714Y-85860000D01*
X155098095Y-85907619D01*
X155050476Y-86002857D01*
X155050476Y-86050476D01*
X155098095Y-86145714D01*
X155145714Y-86193333D01*
X155240952Y-86240952D01*
X155431429Y-86240952D01*
X155526667Y-86288571D01*
X155574286Y-86336190D01*
X155621905Y-86431429D01*
X155621905Y-86621905D01*
X155574286Y-86717143D01*
X155526667Y-86764762D01*
X155431429Y-86812381D01*
X155240952Y-86812381D01*
X155145714Y-86764762D01*
X155098095Y-86717143D01*
X155050476Y-86621905D01*
X155050476Y-86431429D01*
X155098095Y-86336190D01*
X155145714Y-86288571D01*
X155240952Y-86240952D01*
X154145714Y-85812381D02*
X154621905Y-85812381D01*
X154669524Y-86288571D01*
X154621905Y-86240952D01*
X154526667Y-86193333D01*
X154288571Y-86193333D01*
X154193333Y-86240952D01*
X154145714Y-86288571D01*
X154098095Y-86383810D01*
X154098095Y-86621905D01*
X154145714Y-86717143D01*
X154193333Y-86764762D01*
X154288571Y-86812381D01*
X154526667Y-86812381D01*
X154621905Y-86764762D01*
X154669524Y-86717143D01*
X153240952Y-86145714D02*
X153240952Y-86812381D01*
X153479048Y-85764762D02*
X153717143Y-86479048D01*
X153098095Y-86479048D01*
X152955238Y-86907619D02*
X152193333Y-86907619D01*
X151955238Y-86812381D02*
X151955238Y-85812381D01*
X151621904Y-86526667D01*
X151288571Y-85812381D01*
X151288571Y-86812381D01*
X150812381Y-86812381D02*
X150812381Y-85812381D01*
X150431428Y-85812381D01*
X150336190Y-85860000D01*
X150288571Y-85907619D01*
X150240952Y-86002857D01*
X150240952Y-86145714D01*
X150288571Y-86240952D01*
X150336190Y-86288571D01*
X150431428Y-86336190D01*
X150812381Y-86336190D01*
X149240952Y-86717143D02*
X149288571Y-86764762D01*
X149431428Y-86812381D01*
X149526666Y-86812381D01*
X149669524Y-86764762D01*
X149764762Y-86669524D01*
X149812381Y-86574286D01*
X149860000Y-86383810D01*
X149860000Y-86240952D01*
X149812381Y-86050476D01*
X149764762Y-85955238D01*
X149669524Y-85860000D01*
X149526666Y-85812381D01*
X149431428Y-85812381D01*
X149288571Y-85860000D01*
X149240952Y-85907619D01*
X149050476Y-86907619D02*
X148288571Y-86907619D01*
X147479047Y-86717143D02*
X147526666Y-86764762D01*
X147669523Y-86812381D01*
X147764761Y-86812381D01*
X147907619Y-86764762D01*
X148002857Y-86669524D01*
X148050476Y-86574286D01*
X148098095Y-86383810D01*
X148098095Y-86240952D01*
X148050476Y-86050476D01*
X148002857Y-85955238D01*
X147907619Y-85860000D01*
X147764761Y-85812381D01*
X147669523Y-85812381D01*
X147526666Y-85860000D01*
X147479047Y-85907619D01*
X146621904Y-86812381D02*
X146621904Y-86288571D01*
X146669523Y-86193333D01*
X146764761Y-86145714D01*
X146955238Y-86145714D01*
X147050476Y-86193333D01*
X146621904Y-86764762D02*
X146717142Y-86812381D01*
X146955238Y-86812381D01*
X147050476Y-86764762D01*
X147098095Y-86669524D01*
X147098095Y-86574286D01*
X147050476Y-86479048D01*
X146955238Y-86431429D01*
X146717142Y-86431429D01*
X146621904Y-86383810D01*
X146145714Y-86812381D02*
X146145714Y-86145714D01*
X146145714Y-86336190D02*
X146098095Y-86240952D01*
X146050476Y-86193333D01*
X145955238Y-86145714D01*
X145859999Y-86145714D01*
X145098094Y-86812381D02*
X145098094Y-85812381D01*
X145098094Y-86764762D02*
X145193332Y-86812381D01*
X145383809Y-86812381D01*
X145479047Y-86764762D01*
X145526666Y-86717143D01*
X145574285Y-86621905D01*
X145574285Y-86336190D01*
X145526666Y-86240952D01*
X145479047Y-86193333D01*
X145383809Y-86145714D01*
X145193332Y-86145714D01*
X145098094Y-86193333D01*
X144859999Y-86907619D02*
X144098094Y-86907619D01*
X143859999Y-86288571D02*
X143526665Y-86288571D01*
X143383808Y-86812381D02*
X143859999Y-86812381D01*
X143859999Y-85812381D01*
X143383808Y-85812381D01*
X142526665Y-86812381D02*
X142526665Y-85812381D01*
X142526665Y-86764762D02*
X142621903Y-86812381D01*
X142812380Y-86812381D01*
X142907618Y-86764762D01*
X142955237Y-86717143D01*
X143002856Y-86621905D01*
X143002856Y-86336190D01*
X142955237Y-86240952D01*
X142907618Y-86193333D01*
X142812380Y-86145714D01*
X142621903Y-86145714D01*
X142526665Y-86193333D01*
X141621903Y-86145714D02*
X141621903Y-86955238D01*
X141669522Y-87050476D01*
X141717141Y-87098095D01*
X141812380Y-87145714D01*
X141955237Y-87145714D01*
X142050475Y-87098095D01*
X141621903Y-86764762D02*
X141717141Y-86812381D01*
X141907618Y-86812381D01*
X142002856Y-86764762D01*
X142050475Y-86717143D01*
X142098094Y-86621905D01*
X142098094Y-86336190D01*
X142050475Y-86240952D01*
X142002856Y-86193333D01*
X141907618Y-86145714D01*
X141717141Y-86145714D01*
X141621903Y-86193333D01*
X140764760Y-86764762D02*
X140859998Y-86812381D01*
X141050475Y-86812381D01*
X141145713Y-86764762D01*
X141193332Y-86669524D01*
X141193332Y-86288571D01*
X141145713Y-86193333D01*
X141050475Y-86145714D01*
X140859998Y-86145714D01*
X140764760Y-86193333D01*
X140717141Y-86288571D01*
X140717141Y-86383810D01*
X141193332Y-86479048D01*
X106052857Y-110942381D02*
X106386191Y-110466190D01*
X106624286Y-110942381D02*
X106624286Y-109942381D01*
X106243333Y-109942381D01*
X106148095Y-109990000D01*
X106100476Y-110037619D01*
X106052857Y-110132857D01*
X106052857Y-110275714D01*
X106100476Y-110370952D01*
X106148095Y-110418571D01*
X106243333Y-110466190D01*
X106624286Y-110466190D01*
X105195714Y-109942381D02*
X105386191Y-109942381D01*
X105481429Y-109990000D01*
X105529048Y-110037619D01*
X105624286Y-110180476D01*
X105671905Y-110370952D01*
X105671905Y-110751905D01*
X105624286Y-110847143D01*
X105576667Y-110894762D01*
X105481429Y-110942381D01*
X105290952Y-110942381D01*
X105195714Y-110894762D01*
X105148095Y-110847143D01*
X105100476Y-110751905D01*
X105100476Y-110513810D01*
X105148095Y-110418571D01*
X105195714Y-110370952D01*
X105290952Y-110323333D01*
X105481429Y-110323333D01*
X105576667Y-110370952D01*
X105624286Y-110418571D01*
X105671905Y-110513810D01*
X104195714Y-109942381D02*
X104671905Y-109942381D01*
X104719524Y-110418571D01*
X104671905Y-110370952D01*
X104576667Y-110323333D01*
X104338571Y-110323333D01*
X104243333Y-110370952D01*
X104195714Y-110418571D01*
X104148095Y-110513810D01*
X104148095Y-110751905D01*
X104195714Y-110847143D01*
X104243333Y-110894762D01*
X104338571Y-110942381D01*
X104576667Y-110942381D01*
X104671905Y-110894762D01*
X104719524Y-110847143D01*
X106052857Y-116022381D02*
X106386191Y-115546190D01*
X106624286Y-116022381D02*
X106624286Y-115022381D01*
X106243333Y-115022381D01*
X106148095Y-115070000D01*
X106100476Y-115117619D01*
X106052857Y-115212857D01*
X106052857Y-115355714D01*
X106100476Y-115450952D01*
X106148095Y-115498571D01*
X106243333Y-115546190D01*
X106624286Y-115546190D01*
X105195714Y-115022381D02*
X105386191Y-115022381D01*
X105481429Y-115070000D01*
X105529048Y-115117619D01*
X105624286Y-115260476D01*
X105671905Y-115450952D01*
X105671905Y-115831905D01*
X105624286Y-115927143D01*
X105576667Y-115974762D01*
X105481429Y-116022381D01*
X105290952Y-116022381D01*
X105195714Y-115974762D01*
X105148095Y-115927143D01*
X105100476Y-115831905D01*
X105100476Y-115593810D01*
X105148095Y-115498571D01*
X105195714Y-115450952D01*
X105290952Y-115403333D01*
X105481429Y-115403333D01*
X105576667Y-115450952D01*
X105624286Y-115498571D01*
X105671905Y-115593810D01*
X104243333Y-115022381D02*
X104433810Y-115022381D01*
X104529048Y-115070000D01*
X104576667Y-115117619D01*
X104671905Y-115260476D01*
X104719524Y-115450952D01*
X104719524Y-115831905D01*
X104671905Y-115927143D01*
X104624286Y-115974762D01*
X104529048Y-116022381D01*
X104338571Y-116022381D01*
X104243333Y-115974762D01*
X104195714Y-115927143D01*
X104148095Y-115831905D01*
X104148095Y-115593810D01*
X104195714Y-115498571D01*
X104243333Y-115450952D01*
X104338571Y-115403333D01*
X104529048Y-115403333D01*
X104624286Y-115450952D01*
X104671905Y-115498571D01*
X104719524Y-115593810D01*
X106052857Y-118562381D02*
X106386191Y-118086190D01*
X106624286Y-118562381D02*
X106624286Y-117562381D01*
X106243333Y-117562381D01*
X106148095Y-117610000D01*
X106100476Y-117657619D01*
X106052857Y-117752857D01*
X106052857Y-117895714D01*
X106100476Y-117990952D01*
X106148095Y-118038571D01*
X106243333Y-118086190D01*
X106624286Y-118086190D01*
X105195714Y-117562381D02*
X105386191Y-117562381D01*
X105481429Y-117610000D01*
X105529048Y-117657619D01*
X105624286Y-117800476D01*
X105671905Y-117990952D01*
X105671905Y-118371905D01*
X105624286Y-118467143D01*
X105576667Y-118514762D01*
X105481429Y-118562381D01*
X105290952Y-118562381D01*
X105195714Y-118514762D01*
X105148095Y-118467143D01*
X105100476Y-118371905D01*
X105100476Y-118133810D01*
X105148095Y-118038571D01*
X105195714Y-117990952D01*
X105290952Y-117943333D01*
X105481429Y-117943333D01*
X105576667Y-117990952D01*
X105624286Y-118038571D01*
X105671905Y-118133810D01*
X104767143Y-117562381D02*
X104100476Y-117562381D01*
X104529048Y-118562381D01*
X106052857Y-121102381D02*
X106386191Y-120626190D01*
X106624286Y-121102381D02*
X106624286Y-120102381D01*
X106243333Y-120102381D01*
X106148095Y-120150000D01*
X106100476Y-120197619D01*
X106052857Y-120292857D01*
X106052857Y-120435714D01*
X106100476Y-120530952D01*
X106148095Y-120578571D01*
X106243333Y-120626190D01*
X106624286Y-120626190D01*
X105195714Y-120102381D02*
X105386191Y-120102381D01*
X105481429Y-120150000D01*
X105529048Y-120197619D01*
X105624286Y-120340476D01*
X105671905Y-120530952D01*
X105671905Y-120911905D01*
X105624286Y-121007143D01*
X105576667Y-121054762D01*
X105481429Y-121102381D01*
X105290952Y-121102381D01*
X105195714Y-121054762D01*
X105148095Y-121007143D01*
X105100476Y-120911905D01*
X105100476Y-120673810D01*
X105148095Y-120578571D01*
X105195714Y-120530952D01*
X105290952Y-120483333D01*
X105481429Y-120483333D01*
X105576667Y-120530952D01*
X105624286Y-120578571D01*
X105671905Y-120673810D01*
X104529048Y-120530952D02*
X104624286Y-120483333D01*
X104671905Y-120435714D01*
X104719524Y-120340476D01*
X104719524Y-120292857D01*
X104671905Y-120197619D01*
X104624286Y-120150000D01*
X104529048Y-120102381D01*
X104338571Y-120102381D01*
X104243333Y-120150000D01*
X104195714Y-120197619D01*
X104148095Y-120292857D01*
X104148095Y-120340476D01*
X104195714Y-120435714D01*
X104243333Y-120483333D01*
X104338571Y-120530952D01*
X104529048Y-120530952D01*
X104624286Y-120578571D01*
X104671905Y-120626190D01*
X104719524Y-120721429D01*
X104719524Y-120911905D01*
X104671905Y-121007143D01*
X104624286Y-121054762D01*
X104529048Y-121102381D01*
X104338571Y-121102381D01*
X104243333Y-121054762D01*
X104195714Y-121007143D01*
X104148095Y-120911905D01*
X104148095Y-120721429D01*
X104195714Y-120626190D01*
X104243333Y-120578571D01*
X104338571Y-120530952D01*
X180655981Y-113466667D02*
X181370267Y-113466667D01*
X181513124Y-113419047D01*
X181608362Y-113323809D01*
X181655981Y-113180952D01*
X181655981Y-113085714D01*
X181655981Y-113942857D02*
X180655981Y-113942857D01*
X180655981Y-114323810D01*
X180703600Y-114419048D01*
X180751219Y-114466667D01*
X180846457Y-114514286D01*
X180989314Y-114514286D01*
X181084552Y-114466667D01*
X181132171Y-114419048D01*
X181179790Y-114323810D01*
X181179790Y-113942857D01*
X180751219Y-114895238D02*
X180703600Y-114942857D01*
X180655981Y-115038095D01*
X180655981Y-115276191D01*
X180703600Y-115371429D01*
X180751219Y-115419048D01*
X180846457Y-115466667D01*
X180941695Y-115466667D01*
X181084552Y-115419048D01*
X181655981Y-114847619D01*
X181655981Y-115466667D01*
X185165239Y-111688571D02*
X184831905Y-111688571D01*
X184689048Y-112212381D02*
X185165239Y-112212381D01*
X185165239Y-111212381D01*
X184689048Y-111212381D01*
X184260477Y-111545714D02*
X184260477Y-112212381D01*
X184260477Y-111640952D02*
X184212858Y-111593333D01*
X184117620Y-111545714D01*
X183974762Y-111545714D01*
X183879524Y-111593333D01*
X183831905Y-111688571D01*
X183831905Y-112212381D01*
X182927143Y-112212381D02*
X182927143Y-111688571D01*
X182974762Y-111593333D01*
X183070000Y-111545714D01*
X183260477Y-111545714D01*
X183355715Y-111593333D01*
X182927143Y-112164762D02*
X183022381Y-112212381D01*
X183260477Y-112212381D01*
X183355715Y-112164762D01*
X183403334Y-112069524D01*
X183403334Y-111974286D01*
X183355715Y-111879048D01*
X183260477Y-111831429D01*
X183022381Y-111831429D01*
X182927143Y-111783810D01*
X182450953Y-112212381D02*
X182450953Y-111212381D01*
X182450953Y-111593333D02*
X182355715Y-111545714D01*
X182165238Y-111545714D01*
X182070000Y-111593333D01*
X182022381Y-111640952D01*
X181974762Y-111736190D01*
X181974762Y-112021905D01*
X182022381Y-112117143D01*
X182070000Y-112164762D01*
X182165238Y-112212381D01*
X182355715Y-112212381D01*
X182450953Y-112164762D01*
X181403334Y-112212381D02*
X181498572Y-112164762D01*
X181546191Y-112069524D01*
X181546191Y-111212381D01*
X180641428Y-112164762D02*
X180736666Y-112212381D01*
X180927143Y-112212381D01*
X181022381Y-112164762D01*
X181070000Y-112069524D01*
X181070000Y-111688571D01*
X181022381Y-111593333D01*
X180927143Y-111545714D01*
X180736666Y-111545714D01*
X180641428Y-111593333D01*
X180593809Y-111688571D01*
X180593809Y-111783810D01*
X181070000Y-111879048D01*
X179450952Y-112164762D02*
X179308095Y-112212381D01*
X179069999Y-112212381D01*
X178974761Y-112164762D01*
X178927142Y-112117143D01*
X178879523Y-112021905D01*
X178879523Y-111926667D01*
X178927142Y-111831429D01*
X178974761Y-111783810D01*
X179069999Y-111736190D01*
X179260476Y-111688571D01*
X179355714Y-111640952D01*
X179403333Y-111593333D01*
X179450952Y-111498095D01*
X179450952Y-111402857D01*
X179403333Y-111307619D01*
X179355714Y-111260000D01*
X179260476Y-111212381D01*
X179022380Y-111212381D01*
X178879523Y-111260000D01*
X178450952Y-111212381D02*
X178450952Y-112021905D01*
X178403333Y-112117143D01*
X178355714Y-112164762D01*
X178260476Y-112212381D01*
X178069999Y-112212381D01*
X177974761Y-112164762D01*
X177927142Y-112117143D01*
X177879523Y-112021905D01*
X177879523Y-111212381D01*
X177450952Y-112164762D02*
X177308095Y-112212381D01*
X177069999Y-112212381D01*
X176974761Y-112164762D01*
X176927142Y-112117143D01*
X176879523Y-112021905D01*
X176879523Y-111926667D01*
X176927142Y-111831429D01*
X176974761Y-111783810D01*
X177069999Y-111736190D01*
X177260476Y-111688571D01*
X177355714Y-111640952D01*
X177403333Y-111593333D01*
X177450952Y-111498095D01*
X177450952Y-111402857D01*
X177403333Y-111307619D01*
X177355714Y-111260000D01*
X177260476Y-111212381D01*
X177022380Y-111212381D01*
X176879523Y-111260000D01*
X176450952Y-112212381D02*
X176450952Y-111212381D01*
X176069999Y-111212381D01*
X175974761Y-111260000D01*
X175927142Y-111307619D01*
X175879523Y-111402857D01*
X175879523Y-111545714D01*
X175927142Y-111640952D01*
X175974761Y-111688571D01*
X176069999Y-111736190D01*
X176450952Y-111736190D01*
X175450952Y-111688571D02*
X175117618Y-111688571D01*
X174974761Y-112212381D02*
X175450952Y-112212381D01*
X175450952Y-111212381D01*
X174974761Y-111212381D01*
X174546190Y-112212381D02*
X174546190Y-111212381D01*
X173974761Y-112212381D01*
X173974761Y-111212381D01*
X173498571Y-112212381D02*
X173498571Y-111212381D01*
X173260476Y-111212381D01*
X173117618Y-111260000D01*
X173022380Y-111355238D01*
X172974761Y-111450476D01*
X172927142Y-111640952D01*
X172927142Y-111783810D01*
X172974761Y-111974286D01*
X173022380Y-112069524D01*
X173117618Y-112164762D01*
X173260476Y-112212381D01*
X173498571Y-112212381D01*
M02*
